Coordinates
version=1
nRows=11
nColumns=36
inDegrees=yes

Units are S.I. units (second, meters, Newtons, ...)
If the header above contains a line with 'inDegrees', this indicates whether rotational values are in degrees (yes) or radians (no).

endheader
time	pelvis_tilt	pelvis_list	pelvis_rotation	pelvis_tx	pelvis_ty	pelvis_tz	hip_flexion_r	hip_adduction_r	hip_rotation_r	knee_angle_r	knee_angle_r_beta	ankle_angle_r	subtalar_angle_r	mtp_angle_r	hip_flexion_l	hip_adduction_l	hip_rotation_l	knee_angle_l	knee_angle_l_beta	ankle_angle_l	subtalar_angle_l	mtp_angle_l	lumbar_extension	lumbar_bending	lumbar_rotation	arm_flex_r	arm_add_r	arm_rot_r	elbow_flex_r	pro_sup_r	arm_flex_l	arm_add_l	arm_rot_l	elbow_flex_l	pro_sup_l
      0.00000000	      9.96099900	     -1.87400494	      8.93687062	      0.78671323	      0.94515191	     -0.00951756	     22.45116225	      2.15190938	      4.47588873	     18.02181527	      0.31454001	     -4.66866976	    -12.22430901	     -6.57591901	     -9.23850488	      3.25954487	      3.49441890	     11.84128471	      0.20666941	     12.35626215	     -4.89393793	     -6.57591901	    -14.68837324	     -1.03654572	     -1.35461302	     27.54300761	      6.55146059	     53.97553591	    118.86650738	     87.45650268	     37.94412144	     -2.29900319	     64.14235608	    119.82815345	     85.55699483
      0.01666670	     10.50030481	     -3.24456151	      9.75978140	      0.78704201	      0.94424021	     -0.01011673	     21.91609398	      3.05146949	      3.88432477	     14.31633959	      0.24986726	     -4.11687476	     -6.34102238	     -6.86167526	     -8.25448410	      1.66695304	      3.14257179	     14.78665900	      0.25807588	     13.05824978	     -7.09822334	     -6.86167526	    -15.64948402	      0.12364999	     -1.75034012	     31.16109975	      2.93971059	     62.33838482	    124.92514680	     99.63478361	     40.21075825	     -3.30621478	     61.27004508	    122.38583409	     98.48789178
      0.03333330	      9.95420786	     -3.39091926	      9.41903029	      0.78806703	      0.94529634	     -0.00889527	     21.40414660	      2.81974746	      2.31636487	     10.36159269	      0.18084391	     -3.32409947	     -3.33457625	     -6.87855461	     -7.07193250	      1.83813128	      1.85433072	     15.81054164	      0.27594601	     13.97333290	     -8.60994355	     -6.87855461	    -14.24854338	      0.01782614	     -2.51476908	     31.69759624	      4.60823582	     61.72925818	    124.18916737	     99.85444960	     40.13076221	     -4.71098967	     61.58067972	    122.90365882	     99.05768464
      0.05000000	     11.20307085	     -3.79618333	      9.62883418	      0.78620526	      0.94726939	     -0.00929623	     20.37264729	      3.12754676	      1.09267116	     10.58763272	      0.18478905	     -0.98649310	     -0.73307066	     -6.93921680	     -7.58131012	      1.29800772	      1.30191391	     16.53342153	      0.28856264	     15.66048615	     -8.38918343	     -6.93921680	    -15.10682547	      0.56365716	     -3.53222650	     33.05445931	      5.63879330	     61.16603838	    123.14659346	     98.55268290	     40.97083654	     -4.95026408	     60.96310254	    122.79939966	     97.98516588
      0.06666670	     12.21287635	     -4.12559934	      9.39246140	      0.78438585	      0.94811190	     -0.00927879	     20.15773845	      3.54414775	      0.45732607	     11.94744556	      0.20852226	     -0.16923261	      1.25208076	     -6.98510247	     -8.08058393	      0.97065954	      0.49079611	     17.13284401	      0.29902454	     16.85036599	     -8.37541762	     -6.98510247	    -15.92479660	      0.98653231	     -3.79090422	     33.84634583	      6.13213306	     60.84118605	    121.96249454	     97.34778171	     41.51441497	     -4.89321957	     60.36170915	    122.13890131	     96.91562054
      0.08333330	     13.48624548	     -4.33346957	      9.21227410	      0.78281215	      0.94939400	     -0.00941736	     19.89242005	      3.88246791	      0.13983396	     13.35193253	      0.23303518	     -0.23080338	      2.45238795	     -7.03880813	     -8.87515065	      0.68843137	      0.02210837	     17.59873571	      0.30715588	     17.52508763	     -8.05021012	     -7.03880813	    -17.43923274	      1.39735643	     -4.10489257	     34.77151142	      6.55614582	     60.84053642	    120.96432720	     96.09367309	     42.21991644	     -4.85846845	     59.83473825	    121.55167711	     95.85894626
      0.10000000	     14.15105748	     -4.34525804	      8.97831767	      0.78133397	      0.95029717	     -0.00931741	     20.30514589	      3.93413247	      0.25710008	     14.67667519	      0.25615631	     -1.08899925	      2.64946566	     -7.12275719	     -9.11064509	      0.68240602	     -0.43828341	     18.11579633	      0.31618029	     17.88237627	     -8.09544031	     -7.12275719	    -18.48939773	      1.46183328	     -3.83605108	     35.41771149	      6.80870511	     61.01449637	    121.00791387	     93.44289158	     42.91129971	     -4.51251038	     59.97318475	    121.53115596	     93.22471534
      0.11666670	     14.81883974	     -4.24801366	      8.68096487	      0.77564736	      0.95240923	     -0.00706087	     20.68903527	      3.87571239	      0.39090576	     15.86156326	      0.27683650	     -2.27725686	      2.53419143	     -7.13623340	     -9.42271060	      0.76154610	     -0.82490103	     18.52234239	      0.32327586	     18.03998684	     -7.91065517	     -7.13623340	    -19.68121331	      1.37989323	     -3.42257112	     36.15189550	      7.03594604	     61.28189968	    120.54867359	     93.92405049	     43.72105877	     -4.38006176	     60.43447114	    121.16691888	     93.76621259
      0.13333330	     15.23548416	     -4.20187394	      8.49821352	      0.77464907	      0.95047057	     -0.00716019	     21.29343951	      3.80535002	      0.53241322	     16.93266019	      0.29553067	     -3.31347751	      2.41832800	     -7.17216792	     -9.57235935	      0.75513961	     -1.11610913	     18.80527496	      0.32821396	     18.17620525	     -7.70985946	     -7.17216792	    -20.52428028	      1.31424983	     -3.13441487	     36.77501538	      7.08041470	     61.14271418	    120.61212113	     93.31742288	     44.63233376	     -4.25599503	     60.49059511	    120.88799156	     93.13592521
      0.15000000	     15.45395174	     -3.93135635	      8.41951798	      0.76950220	      0.95414363	     -0.01001937	     21.98091414	      3.34602366	      0.39724278	     17.61457713	      0.30743237	     -4.29090085	      2.70847743	     -7.17601785	     -9.39290396	      1.00783047	     -1.23040039	     19.17545231	      0.33467478	     18.12344386	     -7.63182869	     -7.17601785	    -21.23106663	      1.11231525	     -3.00879561	     37.37970014	      7.03145273	     61.03199412	    120.56312398	     93.30837532	     45.27613805	     -4.23214858	     60.19126252	    120.73538707	     93.11325688
      0.16666670	     15.64728311	     -3.73020498	      8.42587405	      0.77366931	      0.95050313	     -0.00711587	     22.49057586	      3.05625784	      0.36770627	     17.86301997	      0.31176851	     -5.04161209	      2.98816635	     -7.17756264	     -9.30468644	      1.10241131	     -1.41570615	     19.41945038	      0.33893335	     18.17977100	     -7.61611503	     -7.17756264	    -21.62898694	      0.93133634	     -2.93848779	     37.75210566	      7.17270409	     60.87067646	    120.65684258	     93.29782111	     45.75428585	     -4.15790471	     59.98532893	    120.71035881	     93.10130248
